{
  "accessors": [
    {
      "bufferView": 1,
      "componentType": 5126,
      "count": 65532,
      "max": [
        8.459732055664063,
        11.1290864944458,
        5.425509452819824
      ],
      "min": [
        -8.391531944274902,
        -6.066348552703857,
        -22.261093139648438
      ],
      "type": "VEC3"
    },
    {
      "bufferView": 1,
      "byteOffset": 786384,
      "componentType": 5126,
      "count": 65532,
      "max": [
        0.9999480247497559,
        0.9999987483024597,
        0.9999998807907104
      ],
      "min": [
        -0.9999472498893738,
        -0.9999511241912842,
        -0.999971330165863
      ],
      "type": "VEC3"
    },
    {
      "bufferView": 0,
      "componentType": 5125,
      "count": 310803,
      "type": "SCALAR"
    },
    {
      "bufferView": 1,
      "byteOffset": 1572768,
      "componentType": 5126,
      "count": 65532,
      "max": [
        8.247588157653809,
        10.28449821472168,
        5.317673206329346
      ],
      "min": [
        -7.924741744995117,
        -5.660982608795166,
        -22.26173973083496
      ],
      "type": "VEC3"
    },
    {
      "bufferView": 1,
      "byteOffset": 2359152,
      "componentType": 5126,
      "count": 65532,
      "max": [
        0.9999889731407166,
        0.9999987483024597,
        0.9999995231628418
      ],
      "min": [
        -0.9999759197235107,
        -0.9999272227287292,
        -0.9999985694885254
      ],
      "type": "VEC3"
    },
    {
      "bufferView": 0,
      "byteOffset": 1243212,
      "componentType": 5125,
      "count": 316842,
      "type": "SCALAR"
    },
    {
      "bufferView": 1,
      "byteOffset": 3145536,
      "componentType": 5126,
      "count": 65532,
      "max": [
        8.368806838989258,
        11.122045516967773,
        6.010489463806152
      ],
      "min": [
        -8.460155487060547,
        -5.6915178298950195,
        -22.18408966064453
      ],
      "type": "VEC3"
    },
    {
      "bufferView": 1,
      "byteOffset": 3931920,
      "componentType": 5126,
      "count": 65532,
      "max": [
        0.9999844431877136,
        0.9999812841415405,
        0.9999997615814209
      ],
      "min": [
        -0.9999980330467224,
        -0.9999282956123352,
        -0.9999954700469971
      ],
      "type": "VEC3"
    },
    {
      "bufferView": 0,
      "byteOffset": 2510580,
      "componentType": 5125,
      "count": 320175,
      "type": "SCALAR"
    },
    {
      "bufferView": 1,
      "byteOffset": 4718304,
      "componentType": 5126,
      "count": 65532,
      "max": [
        8.460004806518555,
        11.138707160949707,
        5.673652172088623
      ],
      "min": [
        -8.459957122802734,
        -6.064189910888672,
        -22.26173973083496
      ],
      "type": "VEC3"
    },
    {
      "bufferView": 1,
      "byteOffset": 5504688,
      "componentType": 5126,
      "count": 65532,
      "max": [
        0.999984085559845,
        0.9999761581420898,
        1.0
      ],
      "min": [
        -0.9999966025352478,
        -0.9999704957008362,
        -0.9999985694885254
      ],
      "type": "VEC3"
    },
    {
      "bufferView": 0,
      "byteOffset": 3791280,
      "componentType": 5125,
      "count": 311637,
      "type": "SCALAR"
    },
    {
      "bufferView": 1,
      "byteOffset": 6291072,
      "componentType": 5126,
      "count": 65532,
      "max": [
        8.453070640563965,
        11.138707160949707,
        5.959934234619141
      ],
      "min": [
        -8.452279090881348,
        -6.039036273956299,
        -22.257537841796875
      ],
      "type": "VEC3"
    },
    {
      "bufferView": 1,
      "byteOffset": 7077456,
      "componentType": 5126,
      "count": 65532,
      "max": [
        0.9999462962150574,
        0.9999897480010986,
        0.9999999403953552
      ],
      "min": [
        -0.99994295835495,
        -0.9998401999473572,
        -0.9999894499778748
      ],
      "type": "VEC3"
    },
    {
      "bufferView": 0,
      "byteOffset": 5037828,
      "componentType": 5125,
      "count": 209292,
      "type": "SCALAR"
    },
    {
      "bufferView": 1,
      "byteOffset": 7863840,
      "componentType": 5126,
      "count": 21452,
      "max": [
        8.454551696777344,
        11.096159934997559,
        5.97925329208374
      ],
      "min": [
        -8.398345947265625,
        -6.056377410888672,
        -22.25238037109375
      ],
      "type": "VEC3"
    },
    {
      "bufferView": 1,
      "byteOffset": 8121264,
      "componentType": 5126,
      "count": 21452,
      "max": [
        0.9998780488967896,
        0.9999987483024597,
        0.9999971389770508
      ],
      "min": [
        -0.9999246597290039,
        -0.99991774559021,
        -0.9999634027481079
      ],
      "type": "VEC3"
    },
    {
      "bufferView": 0,
      "byteOffset": 5874996,
      "componentType": 5125,
      "count": 31440,
      "type": "SCALAR"
    }
  ],
  "asset": {
    "extras": {
      "author": "alemarro (https://sketchfab.com/alemarro)",
      "license": "CC-BY-4.0 (http://creativecommons.org/licenses/by/4.0/)",
      "source": "https://sketchfab.com/3d-models/grubu-the-ogre-soldier-b415c126f21d4d32968ed1cbe22be1fa",
      "title": "Grubu - The ogre soldier"
    },
    "generator": "Sketchfab-12.66.0",
    "version": "2.0"
  },
  "bufferViews": [
    {
      "buffer": 0,
      "byteLength": 6000756,
      "name": "floatBufferViews",
      "target": 34963
    },
    {
      "buffer": 0,
      "byteLength": 8378688,
      "byteOffset": 6000756,
      "byteStride": 12,
      "name": "floatBufferViews",
      "target": 34962
    }
  ],
  "buffers": [
    {
      "byteLength": 14379444,
      "uri": "scene.bin"
    }
  ],
  "materials": [
    {
      "doubleSided": true,
      "name": "material_0",
      "pbrMetallicRoughness": {
        "metallicFactor": 0.2578125,
        "roughnessFactor": 0.5261051829268293
      }
    }
  ],
  "meshes": [
    {
      "name": "Object_0",
      "primitives": [
        {
          "attributes": {
            "NORMAL": 1,
            "POSITION": 0
          },
          "indices": 2,
          "material": 0,
          "mode": 4
        }
      ]
    },
    {
      "name": "Object_1",
      "primitives": [
        {
          "attributes": {
            "NORMAL": 4,
            "POSITION": 3
          },
          "indices": 5,
          "material": 0,
          "mode": 4
        }
      ]
    },
    {
      "name": "Object_2",
      "primitives": [
        {
          "attributes": {
            "NORMAL": 7,
            "POSITION": 6
          },
          "indices": 8,
          "material": 0,
          "mode": 4
        }
      ]
    },
    {
      "name": "Object_3",
      "primitives": [
        {
          "attributes": {
            "NORMAL": 10,
            "POSITION": 9
          },
          "indices": 11,
          "material": 0,
          "mode": 4
        }
      ]
    },
    {
      "name": "Object_4",
      "primitives": [
        {
          "attributes": {
            "NORMAL": 13,
            "POSITION": 12
          },
          "indices": 14,
          "material": 0,
          "mode": 4
        }
      ]
    },
    {
      "name": "Object_5",
      "primitives": [
        {
          "attributes": {
            "NORMAL": 16,
            "POSITION": 15
          },
          "indices": 17,
          "material": 0,
          "mode": 4
        }
      ]
    }
  ],
  "nodes": [
    {
      "children": [
        1
      ],
      "matrix": [
        1.0,
        0.0,
        0.0,
        0.0,
        0.0,
        2.220446049250313e-16,
        -1.0,
        0.0,
        0.0,
        1.0,
        2.220446049250313e-16,
        0.0,
        0.0,
        0.0,
        0.0,
        1.0
      ],
      "name": "Sketchfab_model"
    },
    {
      "children": [
        2,
        3,
        4,
        5,
        6,
        7
      ],
      "name": "ogreTriang.OBJ.cleaner.materialmerger.gles"
    },
    {
      "mesh": 0,
      "name": "Object_2"
    },
    {
      "mesh": 1,
      "name": "Object_3"
    },
    {
      "mesh": 2,
      "name": "Object_4"
    },
    {
      "mesh": 3,
      "name": "Object_5"
    },
    {
      "mesh": 4,
      "name": "Object_6"
    },
    {
      "mesh": 5,
      "name": "Object_7"
    }
  ],
  "scene": 0,
  "scenes": [
    {
      "name": "Sketchfab_Scene",
      "nodes": [
        0
      ]
    }
  ]
}
